<svg fill="none" height="37" viewBox="0 0 175 37" width="175" xmlns="http://www.w3.org/2000/svg"><path d="m42.8 28c.14 0 .28-.14.42-.42s.21-.74.21-1.38v-14.4c0-.64-.07-1.09-.21-1.35-.14-.28-.28-.43-.42-.45h16.89v.6l.6 2.88c-.5-.22-1.38-.45-2.64-.69-1.26-.26-2.78-.39-4.56-.39h-5.07c-.6 0-.96.05-1.08.15-.1.08-.15.33-.15.75v3.42c0 .44.05.7.15.78.12.08.47.12 1.05.12h4.95c1.16 0 2.09-.06 2.79-.18.72-.14 1.19-.28 1.41-.42-.14.38-.28.87-.42 1.47-.12.58-.18 1.09-.18 1.53h-8.55c-.58 0-.93.04-1.05.12-.1.06-.15.32-.15.78v5.28c0 .66.07 1.13.21 1.41.14.26.28.39.42.39zm19.8926 0c.14 0 .28-.14.42-.42s.21-.74.21-1.38v-14.4c0-.64-.07-1.09-.21-1.35-.14-.28-.28-.43-.42-.45h4.62c-.14 0-.28.14-.42.42s-.21.75-.21 1.41v14.37c0 .64.07 1.1.21 1.38s.28.42.42.42zm13.6924 0c.14 0 .28-.14.42-.42s.21-.74.21-1.38v-12.9c0-.44-.05-.7-.15-.78s-.45-.12-1.05-.12h-2.19c-1.16 0-2.1.13-2.82.39-.7.24-1.16.47-1.38.69l.6-2.88v-.6h17.34v.6l.6 2.88c-.22-.22-.69-.45-1.41-.69-.7-.26-1.63-.39-2.79-.39h-2.16c-.62 0-.98.04-1.08.12s-.15.34-.15.78v12.9c0 .64.07 1.1.21 1.38s.28.42.42.42zm13.6709 0c.14 0 .28-.14.42-.42s.21-.74.21-1.38v-14.4c0-.64-.07-1.09-.21-1.35-.14-.28-.28-.43-.42-.45h4.65c-.02.06.05.24.21.54.18.3.5.74.96 1.32.14.18.43.54.87 1.08.46.54 1.03 1.21 1.71 2.01.68.78 1.41 1.64 2.1901 2.58.8.92 1.6 1.86 2.4 2.82.82.94 1.6 1.84 2.34 2.7h.06v-11.25c0-.64-.07-1.09-.21-1.35-.14-.28-.28-.43-.42-.45h4.62c-.14 0-.28.14-.42.42s-.21.75-.21 1.41v14.37c0 .64.07 1.1.21 1.38s.28.42.42.42h-3.93c.02-.06-.06-.24-.24-.54-.18-.32-.5-.76-.96-1.32-.3-.38-.74-.91-1.32-1.59-.56-.7-1.2-1.49-1.92-2.37-.72-.9-1.4901-1.84-2.3101-2.82-.8-.98-1.6-1.96-2.4-2.94-.78-.98-1.52-1.89-2.22-2.73h-.09v12.51c0 .64.07 1.1.21 1.38s.28.42.42.42zm22.9691 0c.14 0 .28-.14.42-.42s.21-.74.21-1.38v-14.4c0-.64-.07-1.09-.21-1.35-.14-.28-.28-.43-.42-.45h16.89v.6l.6 2.88c-.5-.22-1.38-.45-2.64-.69-1.26-.26-2.78-.39-4.56-.39h-5.07c-.6 0-.96.05-1.08.15-.1.08-.15.33-.15.75v3.42c0 .44.05.7.15.78.12.08.47.12 1.05.12h4.95c1.16 0 2.09-.06 2.79-.18.72-.14 1.19-.28 1.41-.42-.14.38-.28.87-.42 1.47-.12.58-.18 1.09-.18 1.53h-8.55c-.58 0-.93.04-1.05.12-.1.06-.15.32-.15.78v3.72c0 .46.05.73.15.81s.45.12 1.05.12h8.73c1.16 0 2.09-.13 2.79-.39.72-.28 1.19-.55 1.41-.81l-.6 2.7v.93zm29.927.3c-2.18 0-4.11-.1-5.79-.3s-2.89-.4-3.63-.6v-.6l-.6-3.21c.28.32.81.66 1.59 1.02.8.36 1.86.67 3.18.93 1.32.24 2.89.36 4.71.36 1.64 0 2.88-.11 3.72-.33.86-.24 1.44-.56 1.74-.96.32-.42.48-.9.48-1.44 0-.96-.59-1.64-1.77-2.04-1.16-.4-2.88-.74-5.16-1.02-1.98-.26-3.57-.6-4.77-1.02-1.2-.44-2.07-1.02-2.61-1.74s-.81-1.63-.81-2.73c0-1.4.64-2.57 1.92-3.51s3.27-1.41 5.97-1.41c2.08 0 3.89.1 5.43.3s2.63.4 3.27.6v.6l.9 2.7c-.42-.26-1.07-.53-1.95-.81-.86-.28-1.9-.51-3.12-.69-1.22-.2-2.58-.3-4.08-.3-1.88 0-3.18.2-3.9.6s-1.08.98-1.08 1.74c0 1 .55 1.71 1.65 2.13 1.1.4 2.67.72 4.71.96 2.16.24 3.88.58 5.16 1.02s2.2 1.03 2.76 1.77.84 1.7.84 2.88c0 1.58-.74 2.83-2.22 3.75-1.48.9-3.66 1.35-6.54 1.35zm21.182 0c-2.18 0-4.11-.1-5.79-.3s-2.89-.4-3.63-.6v-.6l-.6-3.21c.28.32.81.66 1.59 1.02.8.36 1.86.67 3.18.93 1.32.24 2.89.36 4.71.36 1.64 0 2.88-.11 3.72-.33.86-.24 1.44-.56 1.74-.96.32-.42.48-.9.48-1.44 0-.96-.59-1.64-1.77-2.04-1.16-.4-2.88-.74-5.16-1.02-1.98-.26-3.57-.6-4.77-1.02-1.2-.44-2.07-1.02-2.61-1.74s-.81-1.63-.81-2.73c0-1.4.64-2.57 1.92-3.51s3.27-1.41 5.97-1.41c2.08 0 3.89.1 5.43.3s2.63.4 3.27.6v.6l.9 2.7c-.42-.26-1.07-.53-1.95-.81-.86-.28-1.9-.51-3.12-.69-1.22-.2-2.58-.3-4.08-.3-1.88 0-3.18.2-3.9.6s-1.08.98-1.08 1.74c0 1 .55 1.71 1.65 2.13 1.1.4 2.67.72 4.71.96 2.16.24 3.88.58 5.16 1.02s2.2 1.03 2.76 1.77.84 1.7.84 2.88c0 1.58-.74 2.83-2.22 3.75-1.48.9-3.66 1.35-6.54 1.35z" fill="#333"/><path d="m30.1507 13.6693-.2549-.0029c-3.5546 0-6.7527 1.987-8.3791 5.0986-1.023-.4614-2.1324-.7237-3.2873-.7237-1.9081 0-3.7025.6803-5.1231 1.8652-.0274-1.2526-.1906-2.5001-.3498-3.6083-.1364-.9475-.2672-1.8669-.2758-2.6324l3.6866.0006c.5839 0 1.1336-.2278 1.5466-.6409l2.9166-2.9166c.8336-.83362.8394-2.1707.0436-3.0275.278-.41658.4104-.91552.3595-1.42499-.0649-.6544-.4159-1.23968-.9635-1.6043l-1.7702-1.17986c-.8551-.57038-1.8513-.87225-2.8803-.87225-2.1447 0-4.1606.83527-5.67723 2.35193-2.79352 2.79338-4.99164 5.99197-6.53537 9.50747-1.85989 4.2353-2.802684 7.3599-2.802684 9.286 0 1.1037-.095428 2.0002-.284097 2.6653-.403039 1.4205.231392 2.9358 1.542361 3.6849 5.25148 3.0006 11.22422 4.5871 17.27252 4.5871h1.0546c3.749 0 7.4531-.601 11.0099-1.7865l.5106-.1709c2.087-.695 3.4898-2.641 3.4898-4.8414v-8.507c-.0001-2.7457-2.1754-5.0372-4.8493-5.1076zm3.3909 13.6146c0 1.5716-1.0019 2.9615-2.4937 3.4586l-.5105.1709c-3.4065 1.135-6.9555 1.711-10.5478 1.711h-1.0546c-5.7948 0-11.51762-1.5195-16.54905-4.3949-.72774-.4158-1.08232-1.2468-.86302-2.0208.22572-.794.33967-1.825.33967-3.0634 0-1.6989.92639-4.7067 2.68018-8.6992 1.4697-3.3496 3.56604-6.3986 6.23052-9.06313 1.2412-1.24111 2.891-1.92469 4.6463-1.92469.7398 0 1.4561.21718 2.0714.62733l1.7702 1.17986c.183.12174.2997.31684.3211.53476.0221.21861-.0548.43223-.2094.58747l-2.3291 2.32917c-.2493.24923-.6288.31048-.9435.15312-.2378-.11895-.3987-.33755-.4415-.60025-.0427-.2627.0406-.52123.2286-.70922l.6701-.67005c.2848-.28484.2848-.74626 0-1.03104-.2849-.28485-.7463-.28485-1.0311 0l-.67.67005c-.5234.52334-.7563 1.24329-.6373 1.97452.1189.73061.5668 1.33941 1.229 1.6705.8759.4373 1.9332.2678 2.6268-.42652l1.5949-1.59493c.1971.28396.1824.67209-.0704.92488l-2.9166 2.91667c-.1361.136-.3241.2136-.5156.2136l-3.4047-.0006c.0457-.0756.0896-.1535.1492-.213.2848-.2849.2848-.7463 0-1.0311-.2849-.2848-.7463-.2848-1.0311 0-1.1927 1.1927-.9029 3.2086-.5675 5.5427.1738 1.2119.3539 2.4652.3539 3.7226 0 3.0036-2.27291 3.643-2.36978 3.6686-.38738.1004-.62233.4942-.52478.883.08257.3318.37952.5525.70634.5525.05838 0 .11819-.0071.17732-.022.8731-.2182 2.3039-1.056 3.0231-2.7746.0099-.0133.026-.0183.0352-.0324 1.2163-1.8813 3.2777-3.0042 5.515-3.0042 1.7417 0 3.3823.675 4.6191 1.9012.2863.2834.7484.282 1.0311-.0043.2834-.2863.282-.7477-.0043-1.031-.3374-.3345-.7072-.6229-1.0896-.8886 1.3705-2.6548 4.088-4.3522 7.1101-4.3522l.2157.0028c1.8913.0499 3.43 1.6869 3.43 3.6493v8.507z" fill="#ce2f3b"/></svg>